# xmcd
# Track frame offsets:
# 150
# 12883
# 29663
# 47877
# 61973
# 77238
# 91495
# 111270
# 121888
# 137848
# 154905
# 169190
# 182088
# 193645
# 213620
# 227720
# 239500
# 254435
# 266603
# 278780
# 298630
# 310355
# 311108
# 311860
#
# Disc length: 4168 seconds
# Revision: 0
# Processed by: cddbd v1.5.2PL0 Copyright (c) Steve Scherf et al.
# Submitted via: VisiTrax 2.10.3.257 - For more info visit www.synapsa.com
#
DISCID=70104618
DTITLE=Various Artist - Mobile Beat Country 03
DYEAR=1900
DGENRE=Country
TTITLE0=Smokin' Armadillos - Thump Factor
TTITLE1=Don McLean - Crying
TTITLE2=Mark Chestnutt - Goin' Through The Big D (Dance Mix)
TTITLE3=Vince Gill - A Little More Love
TTITLE4=Mark Collie - Hard Lovin Woman
TTITLE5=Alan Jackson - Chasin' That Neon Rainbow
TTITLE6=Trisha Yearwood - How Do I Live
TTITLE7=George Strait - Heartland
TTITLE8=Holly Dunn - Daddy's Hands
TTITLE9=Pam Tillis - Blue Rose Is
TTITLE10=Trace Adkins - I Left Something Turned On At Home
TTITLE11=Lynn Anderson - Rose Garden
TTITLE12=David Lee Murphy - Out With A Bang
TTITLE13=Kenny Rogers - Through The Years
TTITLE14=Tracy Lawremce - Alibis
TTITLE15=Garth Brooks - Two Of A Kind, Workin' On A Full House
TTITLE16=Anne Murray - Could I Have This Dance
TTITLE17=Tanya Tucker - It's A Little Too Late
TTITLE18=Eddie Arnold - Make The World Go Away
TTITLE19=Toby Keith - A Little Less Talk And A Lot More Action
TTITLE20=Willie Nelson - On The Road Again
TTITLE21=a - a
TTITLE22=a - a
TTITLE23=a - a
EXTD=This CD shows 24 tracks but really has only 21
EXTT0=
EXTT1=
EXTT2=
EXTT3=
EXTT4=
EXTT5=
EXTT6=
EXTT7=
EXTT8=
EXTT9=
EXTT10=
EXTT11=
EXTT12=
EXTT13=
EXTT14=
EXTT15=
EXTT16=
EXTT17=
EXTT18=
EXTT19=
EXTT20=
EXTT21=
EXTT22=
EXTT23=
PLAYORDER=
